<svg width="448" height="17" viewBox="0 0 448 17" fill="none" xmlns="http://www.w3.org/2000/svg">
<path d="M438.237 13.1646C437.454 13.4361 437.04 14.2906 437.311 15.0733C437.583 15.856 438.437 16.2705 439.22 15.999L438.237 13.1646ZM438.729 14.5818C439.22 15.999 439.221 15.9988 439.222 15.9985C439.222 15.9983 439.223 15.9979 439.224 15.9975C439.227 15.9968 439.229 15.9958 439.233 15.9945C439.24 15.9921 439.25 15.9886 439.262 15.9843C439.287 15.9756 439.321 15.9631 439.366 15.947C439.455 15.9148 439.581 15.8681 439.739 15.8078C440.054 15.6875 440.496 15.5125 441.007 15.291C442.02 14.8531 443.356 14.2135 444.541 13.4356C445.649 12.7088 446.945 11.6602 447.44 10.3025C447.716 9.54574 447.74 8.69742 447.366 7.86019C447.012 7.06739 446.365 6.42433 445.562 5.8914C443.983 4.84231 441.379 3.94278 437.5 3.17162C433.577 2.39196 428.198 1.71594 420.944 1.20333C406.433 0.177914 384.298 -0.201626 351.068 0.598042L351.14 3.59717C384.332 2.79842 406.36 3.18019 420.733 4.19587C427.921 4.70381 433.163 5.36827 436.915 6.11405C440.709 6.86832 442.832 7.67917 443.902 8.39042C444.425 8.73766 444.584 8.98725 444.626 9.08272C444.649 9.13375 444.66 9.16931 444.621 9.27521C444.487 9.64269 443.951 10.2343 442.895 10.9276C441.917 11.5699 440.758 12.1304 439.817 12.5375C439.352 12.7387 438.951 12.8974 438.669 13.0052C438.528 13.059 438.417 13.0999 438.343 13.1269C438.305 13.1404 438.278 13.1504 438.26 13.1567C438.251 13.1599 438.244 13.1621 438.24 13.1635C438.239 13.1641 438.237 13.1646 438.237 13.1648C438.236 13.1649 438.237 13.1648 438.236 13.1649C438.237 13.1648 438.237 13.1646 438.729 14.5818ZM351.068 0.598042C284.668 2.19596 197.138 2.42676 126.198 2.25788C90.7304 2.17345 59.4136 1.98912 36.9637 1.8259C25.7389 1.7443 16.7308 1.66796 10.5291 1.61204C7.42832 1.58407 5.02906 1.56121 3.4051 1.54534C2.59315 1.5374 1.975 1.53122 1.55989 1.52701C1.35232 1.52491 1.19553 1.52331 1.09064 1.52223C1.03819 1.52169 0.998706 1.52128 0.972385 1.521C0.959195 1.52087 0.949302 1.52076 0.942706 1.5207C0.939409 1.52066 0.936935 1.52064 0.935286 1.52062C0.933668 1.5206 0.932844 1.52059 0.917138 3.02051C0.901462 4.52043 0.902287 4.52044 0.903966 4.52046C0.905646 4.52047 0.908119 4.5205 0.911447 4.52053C0.918073 4.5206 0.928027 4.52071 0.941248 4.52084C0.96766 4.52112 1.0072 4.52153 1.05975 4.52207C1.16479 4.52315 1.32176 4.52476 1.52952 4.52686C1.94496 4.53107 2.56345 4.53726 3.3758 4.5452C5.00046 4.56107 7.40045 4.58394 10.5021 4.61192C16.7053 4.66786 25.7151 4.7442 36.9419 4.82583C59.3955 4.98907 90.7173 5.17343 126.191 5.25787C197.134 5.42676 284.698 5.1961 351.14 3.59717L351.068 0.598042Z" fill="#FD1C68"/>
</svg>
