<svg width="17" height="22" viewBox="0 0 17 22" fill="none" xmlns="http://www.w3.org/2000/svg">
<path d="M6.48974 0.525762C6.54905 0.526356 6.60947 0.53746 6.66308 0.559459C6.77264 0.601027 6.85966 0.681896 6.90696 0.78212C6.95377 0.882373 6.956 0.995366 6.91432 1.09859C6.91432 1.09859 6.84094 1.70745 6.59885 2.70413C5.81841 5.93048 4.5257 9.03619 2.76378 11.9239L2.00898 13.0518C1.98913 13.1033 1.95763 13.1515 1.91469 13.1916C1.87376 13.232 1.82536 13.2642 1.76939 13.2863C1.71395 13.3088 1.65537 13.3206 1.59369 13.3219C1.53438 13.3213 1.47395 13.3102 1.42034 13.2882C0.692648 13.0293 2.01737 9.04658 2.27736 8.35107C2.70159 7.19244 3.7322 4.71322 4.3247 3.62015C4.85393 2.65264 5.43936 1.70881 6.07445 0.795923C6.0943 0.744369 6.1258 0.696254 6.16874 0.656149C6.20967 0.615706 6.25807 0.583525 6.31404 0.561422C6.36951 0.539347 6.42856 0.527111 6.48974 0.525762Z" fill="url(#paint0_linear_508_2440)"/>
<path d="M16.0497 18.1345C16.0604 18.1929 16.0609 18.2543 16.0495 18.3111C16.0294 18.4266 15.9665 18.5273 15.8771 18.5928C15.7875 18.6578 15.677 18.6814 15.5678 18.66C15.5678 18.66 14.956 18.7034 13.9315 18.6546C10.6157 18.4998 7.32129 17.8193 4.15199 16.6366L2.90147 16.1093C2.84708 16.0996 2.79383 16.0778 2.74632 16.0432C2.69885 16.0107 2.65808 15.9693 2.62577 15.9185C2.59313 15.8684 2.57053 15.8131 2.55749 15.7528C2.54683 15.6944 2.54627 15.633 2.55771 15.5762C2.67405 14.8126 6.83564 15.3584 7.56782 15.4818C8.78586 15.6787 11.4155 16.2207 12.6011 16.5953C13.6513 16.9315 14.689 17.3274 15.7057 17.778C15.7601 17.7877 15.8133 17.8095 15.8609 17.8441C15.9083 17.8766 15.9491 17.918 15.9814 17.9688C16.0136 18.0191 16.0368 18.0747 16.0497 18.1345Z" fill="url(#paint1_linear_508_2440)"/>
<path d="M14.2678 7.02789C14.3153 7.06334 14.3576 7.10792 14.3879 7.1573C14.4519 7.25547 14.4745 7.37209 14.4537 7.48093C14.4324 7.5895 14.3675 7.68209 14.273 7.74089C14.273 7.74089 13.8548 8.18943 13.0717 8.85176C10.5392 10.9977 7.66408 12.7442 4.5385 14.0379L3.26387 14.504C3.21745 14.5339 3.16361 14.5543 3.10528 14.5613C3.04838 14.5699 2.99032 14.5673 2.93208 14.5522C2.87401 14.5377 2.81979 14.5126 2.76916 14.4774C2.7216 14.4419 2.67933 14.3973 2.649 14.348C2.21389 13.7098 5.63189 11.2738 6.25193 10.8653C7.27765 10.1795 9.57172 8.78456 10.6947 8.25095C11.6926 7.78147 12.7219 7.36423 13.7731 7.00127C13.8195 6.97133 13.8733 6.95104 13.9316 6.94396C13.9885 6.93543 14.0466 6.93797 14.1048 6.95311C14.1627 6.96798 14.2176 6.99291 14.2678 7.02789Z" fill="url(#paint2_linear_508_2440)"/>
<defs>
<linearGradient id="paint0_linear_508_2440" x1="7.28849" y1="6.73078" x2="0.868834" y2="7.11253" gradientUnits="userSpaceOnUse">
<stop stop-color="white"/>
<stop offset="0.0001" stop-color="#FDAE8F"/>
<stop offset="1" stop-color="#FD1C68"/>
</linearGradient>
<linearGradient id="paint1_linear_508_2440" x1="10.1086" y1="20.095" x2="8.51692" y2="13.8641" gradientUnits="userSpaceOnUse">
<stop stop-color="white"/>
<stop offset="0.0001" stop-color="#FDAE8F"/>
<stop offset="1" stop-color="#FD1C68"/>
</linearGradient>
<linearGradient id="paint2_linear_508_2440" x1="11.2548" y1="12.5108" x2="5.84438" y2="9.03449" gradientUnits="userSpaceOnUse">
<stop stop-color="white"/>
<stop offset="0.0001" stop-color="#FDAE8F"/>
<stop offset="1" stop-color="#FD1C68"/>
</linearGradient>
</defs>
</svg>
