<svg width="24" height="25" viewBox="0 0 24 25" fill="none" xmlns="http://www.w3.org/2000/svg">
<path d="M8.81893 17.8033C7.75827 20.9853 3.51562 20.9853 3.51562 20.9853C3.51562 20.9853 3.51562 16.7427 6.69761 15.682" stroke="white" stroke-width="2" stroke-linecap="round" stroke-linejoin="round"/>
<path d="M18.3644 10.3787L12.0005 16.7427L7.75781 12.5L14.1218 6.13606C16.5315 3.72629 18.9413 3.7498 19.969 3.90313C20.1272 3.92672 20.2737 4.00051 20.3868 4.11364C20.5 4.22676 20.5738 4.37324 20.5973 4.53147C20.7507 5.55917 20.7742 7.96893 18.3644 10.3787Z" stroke="white" stroke-width="2" stroke-linecap="round" stroke-linejoin="round"/>
<path d="M17.3033 11.4393V17.4926C17.3033 17.5911 17.2839 17.6887 17.2462 17.7796C17.2085 17.8706 17.1533 17.9533 17.0836 18.023L14.0516 21.055C13.9556 21.151 13.8354 21.2191 13.7037 21.2521C13.572 21.2852 13.4338 21.2818 13.3039 21.2425C13.174 21.2032 13.0572 21.1293 12.9659 21.0288C12.8747 20.9283 12.8124 20.8049 12.7858 20.6718L12 16.7426" stroke="white" stroke-width="2" stroke-linecap="round" stroke-linejoin="round"/>
<path d="M13.0619 7.19672H7.0086C6.91011 7.19672 6.81258 7.21612 6.72159 7.25381C6.6306 7.2915 6.54792 7.34674 6.47827 7.41639L3.44623 10.4484C3.35024 10.5444 3.28211 10.6647 3.24909 10.7963C3.21607 10.928 3.21941 11.0662 3.25874 11.1961C3.29808 11.326 3.37195 11.4428 3.47246 11.5341C3.57297 11.6253 3.69636 11.6876 3.82948 11.7142L7.7586 12.5" stroke="white" stroke-width="2" stroke-linecap="round" stroke-linejoin="round"/>
</svg>
